<svg width="20" height="20" viewBox="0 0 20 20" fill="none" xmlns="http://www.w3.org/2000/svg">
<path fill-rule="evenodd" clip-rule="evenodd" d="M1.66675 8.24512C2.80868 8.24512 3.93943 8.46293 4.99443 8.88613C6.04944 9.30933 7.00804 9.92962 7.8155 10.7116C8.62297 11.4936 9.26349 12.4219 9.70048 13.4436C10.1375 14.4653 10.3624 15.5603 10.3624 16.6662H8.91313C8.91313 15.7446 8.72569 14.8321 8.36153 13.9807C7.99736 13.1293 7.4636 12.3557 6.79071 11.704C6.11782 11.0524 5.31899 10.5355 4.43982 10.1828C3.56065 9.83014 2.61836 9.64863 1.66675 9.64863V8.24512Z" fill="black"/>
<path fill-rule="evenodd" clip-rule="evenodd" d="M1.66675 11.0527C2.42803 11.0527 3.18187 11.1979 3.8852 11.4801C4.58854 11.7622 5.22761 12.1757 5.76592 12.697C6.30423 13.2184 6.73124 13.8372 7.02257 14.5184C7.3139 15.1995 7.46385 15.9295 7.46385 16.6668H6.01457C6.01457 16.1138 5.90211 15.5663 5.68362 15.0555C5.46512 14.5446 5.14486 14.0805 4.74113 13.6895C4.33739 13.2985 3.85809 12.9883 3.33059 12.7768C2.80309 12.5652 2.23771 12.4562 1.66675 12.4562V11.0527Z" fill="black"/>
<path fill-rule="evenodd" clip-rule="evenodd" d="M1.66675 16.666L1.66675 13.859C2.04739 13.859 2.42431 13.9316 2.77598 14.0727C3.07789 14.1938 3.35612 14.3633 3.59911 14.5738C3.63916 14.6085 3.67825 14.6443 3.71633 14.6812C3.75441 14.718 3.79138 14.7559 3.8272 14.7947C4.04455 15.03 4.2196 15.2994 4.34466 15.5918C4.49033 15.9324 4.5653 16.2974 4.5653 16.666L1.66675 16.666Z" fill="black"/>
<path fill-rule="evenodd" clip-rule="evenodd" d="M1.66675 5.21335C1.66675 4.17487 2.53995 3.33301 3.6171 3.33301H16.3831C17.4602 3.33301 18.3334 4.17487 18.3334 5.21335V14.786C18.3334 15.8245 17.4602 16.6663 16.3831 16.6663H12.1277V15.6407H16.3831C16.8727 15.6407 17.2696 15.258 17.2696 14.786V5.21335C17.2696 4.74131 16.8727 4.35865 16.3831 4.35865H3.6171C3.12749 4.35865 2.73058 4.74131 2.73058 5.21335V6.58087H1.66675V5.21335Z" fill="black"/>
</svg>
