<svg width="80" height="18" viewBox="0 0 80 18" fill="none" xmlns="http://www.w3.org/2000/svg">
<g clip-path="url(#clip0_22_3478)">
<path d="M24.8646 2.96208C24.572 1.88207 23.7127 1.03335 22.6194 0.744243C20.6397 0.219727 12.6978 0.219727 12.6978 0.219727C12.6978 0.219727 4.75593 0.219727 2.7762 0.744243C1.68287 1.03335 0.823665 1.88207 0.530992 2.96208C1.58946e-07 4.91766 0 9.00021 0 9.00021C0 9.00021 1.58946e-07 13.0828 0.530992 15.0384C0.823665 16.1184 1.68287 16.9671 2.7762 17.2562C4.75593 17.7807 12.6978 17.7807 12.6978 17.7807C12.6978 17.7807 20.6397 17.7807 22.6194 17.2562C23.7127 16.9671 24.572 16.1184 24.8646 15.0384C25.3956 13.0828 25.3956 9.00021 25.3956 9.00021C25.3956 9.00021 25.3935 4.91766 24.8646 2.96208Z" fill="#FF0000"/>
<path d="M10.1558 12.7632L16.7535 9.00078L10.1558 5.23828V12.7632Z" fill="white"/>
<path d="M30.7577 11.6372L27.9062 1.46484H30.394L31.3933 6.07604C31.6483 7.21181 31.8343 8.1803 31.9556 8.98153H32.0287C32.1124 8.40745 32.3006 7.44516 32.5911 6.09257L33.6259 1.46484H36.1136L33.2266 11.6372V16.5168H30.7557V11.6372H30.7577Z" fill="white"/>
<path d="M36.8621 16.1945C36.3604 15.86 36.0029 15.3396 35.7896 14.6334C35.5785 13.9272 35.4719 12.9897 35.4719 11.8167V10.2204C35.4719 9.03713 35.5932 8.08519 35.8357 7.36862C36.0781 6.65206 36.4565 6.12754 36.9708 5.79921C37.4851 5.47087 38.1603 5.30566 38.9965 5.30566C39.8202 5.30566 40.4787 5.47293 40.9762 5.80747C41.4717 6.142 41.8354 6.66652 42.0653 7.37688C42.2953 8.08932 42.4103 9.03713 42.4103 10.2204V11.8167C42.4103 12.9897 42.2974 13.9313 42.0738 14.6416C41.8501 15.3541 41.4863 15.8745 40.9845 16.2028C40.4829 16.5312 39.8013 16.6963 38.9421 16.6963C38.0557 16.6984 37.3638 16.5291 36.8621 16.1945ZM39.6759 14.4723C39.8139 14.113 39.885 13.5286 39.885 12.715V9.28913C39.885 8.50026 39.816 7.92205 39.6759 7.55861C39.5358 7.1931 39.2913 7.01138 38.94 7.01138C38.6014 7.01138 38.361 7.1931 38.223 7.55861C38.0829 7.92412 38.014 8.50026 38.014 9.28913V12.715C38.014 13.5286 38.0808 14.1151 38.2147 14.4723C38.3485 14.8316 38.5888 15.0113 38.94 15.0113C39.2913 15.0113 39.5358 14.8316 39.6759 14.4723Z" fill="white"/>
<path d="M50.5025 16.519H48.5417L48.3242 15.1726H48.2699C47.7368 16.1886 46.9382 16.6965 45.872 16.6965C45.1341 16.6965 44.5885 16.457 44.2373 15.98C43.8861 15.5009 43.7104 14.7534 43.7104 13.7374V5.52062H46.217V13.5928C46.217 14.0843 46.2713 14.4332 46.3801 14.6419C46.4888 14.8504 46.6706 14.9557 46.9257 14.9557C47.1431 14.9557 47.3521 14.8897 47.5529 14.7575C47.7536 14.6253 47.8999 14.458 47.9981 14.2557V5.51855H50.5025V16.519Z" fill="white"/>
<path d="M57.3117 3.45748H54.8239V16.5187H52.3718V3.45748H49.884V1.4668H57.3117V3.45748Z" fill="white"/>
<path d="M63.3573 16.519H61.3964L61.179 15.1726H61.1247C60.5916 16.1886 59.793 16.6965 58.7268 16.6965C57.9888 16.6965 57.4432 16.457 57.092 15.98C56.7408 15.5009 56.5652 14.7534 56.5652 13.7374V5.52062H59.0718V13.5928C59.0718 14.0843 59.1261 14.4332 59.2348 14.6419C59.3435 14.8504 59.5254 14.9557 59.7805 14.9557C59.9978 14.9557 60.2069 14.8897 60.4076 14.7575C60.6083 14.6253 60.7546 14.458 60.8528 14.2557V5.51855H63.3573V16.519Z" fill="white"/>
<path d="M71.6524 7.27772C71.4998 6.58387 71.2551 6.08207 70.9166 5.77025C70.5779 5.45843 70.1117 5.30356 69.518 5.30356C69.0581 5.30356 68.6274 5.43158 68.2281 5.68971C67.8288 5.94784 67.5194 6.28444 67.302 6.70364H67.2832V0.90918H64.8687V16.5166H66.9383L67.1933 15.4759H67.2477C67.4421 15.8476 67.7327 16.1387 68.1194 16.3556C68.5062 16.5704 68.9368 16.6778 69.4093 16.6778C70.2559 16.6778 70.881 16.2916 71.2803 15.5213C71.6796 14.7489 71.8802 13.5451 71.8802 11.9055V10.1647C71.8802 8.93593 71.8029 7.97157 71.6524 7.27772ZM69.3549 11.765C69.3549 12.5662 69.3215 13.194 69.2545 13.6483C69.1877 14.1026 69.0768 14.4269 68.918 14.6168C68.7612 14.8088 68.5479 14.9038 68.2824 14.9038C68.0755 14.9038 67.8853 14.8563 67.7096 14.7593C67.5341 14.6643 67.3919 14.5198 67.2832 14.3298V8.08721C67.3668 7.78777 67.5132 7.54411 67.7201 7.35206C67.925 7.16001 68.1508 7.06502 68.3911 7.06502C68.6463 7.06502 68.8427 7.16414 68.9807 7.36032C69.1207 7.55856 69.2169 7.88897 69.2713 8.35566C69.3256 8.82235 69.3528 9.48522 69.3528 10.3463V11.765H69.3549Z" fill="white"/>
<path d="M75.4361 12.3988C75.4361 13.105 75.457 13.6337 75.4989 13.9868C75.5407 14.3399 75.6285 14.596 75.7623 14.7592C75.896 14.9202 76.1009 15.0007 76.379 15.0007C76.7532 15.0007 77.0124 14.8562 77.1504 14.5692C77.2904 14.2821 77.3657 13.8031 77.3783 13.134L79.5399 13.2599C79.5524 13.3549 79.5586 13.487 79.5586 13.6543C79.5586 14.6703 79.2764 15.4303 78.7141 15.9321C78.1518 16.4339 77.3552 16.6858 76.3267 16.6858C75.0912 16.6858 74.2257 16.3037 73.7303 15.5376C73.2328 14.7715 72.9861 13.5883 72.9861 11.9858V10.0653C72.9861 8.41537 73.2432 7.2094 73.7575 6.44947C74.2718 5.68954 75.1519 5.30957 76.3999 5.30957C77.2591 5.30957 77.9197 5.46445 78.3796 5.77627C78.8395 6.08808 79.1635 6.5713 79.3517 7.23005C79.5399 7.88879 79.6339 8.7974 79.6339 9.95791V11.8412H75.4361V12.3988ZM75.7539 7.21559C75.6264 7.37046 75.5428 7.62447 75.4989 7.97758C75.457 8.33071 75.4361 8.86554 75.4361 9.58421V10.373H77.2696V9.58421C77.2696 8.87793 77.2445 8.3431 77.1964 7.97758C77.1483 7.61208 77.0605 7.35601 76.9329 7.20527C76.8055 7.05659 76.6089 6.98018 76.3434 6.98018C76.0759 6.98224 75.8793 7.06072 75.7539 7.21559Z" fill="white"/>
</g>
<defs>
<clipPath id="clip0_22_3478">
<rect width="80" height="17.561" fill="white" transform="translate(0 0.219727)"/>
</clipPath>
</defs>
</svg>
