<svg width="20" height="20" viewBox="0 0 20 20" fill="none" xmlns="http://www.w3.org/2000/svg">
<path d="M8.33325 16.6671H11.6666C11.6666 17.5837 10.9166 18.3337 9.99992 18.3337C9.08325 18.3337 8.33325 17.5837 8.33325 16.6671ZM16.6666 14.4588V15.8337H3.33325V14.4588L4.99992 12.8921V8.60042C4.99992 6.16708 6.29992 4.25042 8.33325 3.61708V3.30042C8.33325 2.11708 9.57492 1.21708 10.8249 1.83375C11.3666 2.10042 11.6666 2.69208 11.6666 3.30042V3.62542C13.6999 4.25042 14.9999 6.17542 14.9999 8.60875V12.9004L16.6666 14.4588ZM15.8333 14.8088L14.1666 13.2421V8.68375C14.1666 6.62542 13.1749 5.05042 11.5583 4.43375C10.5083 3.99208 9.35825 4.01708 8.35825 4.45875C6.79158 5.09208 5.83325 6.65875 5.83325 8.68375V13.2421L4.16659 14.8088V15.0004H15.8333V14.8088Z" fill="black"/>
</svg>
